<svg width="79" height="127" viewBox="0 0 79 127" fill="none" xmlns="http://www.w3.org/2000/svg">
<ellipse cx="17.5332" cy="18.1353" rx="11.0842" ry="12.2216" fill="black"/>
<ellipse cx="11.0842" cy="12.2216" rx="11.0842" ry="12.2216" transform="matrix(-1 0 0 1 73.3571 0)" fill="black"/>
<ellipse cx="18.5408" cy="18.5297" rx="7.65816" ry="7.49067" fill="white"/>
<ellipse cx="7.65816" cy="7.49067" rx="7.65816" ry="7.49067" transform="matrix(-1 0 0 1 70.1327 4.73102)" fill="white"/>
<path d="M67.7332 124.009C64.1985 124.963 60.5755 125.599 56.8641 125.917C53.241 126.341 49.6622 126.553 46.1275 126.553C42.6812 126.553 39.986 126.447 38.0419 126.235C36.1862 126.023 33.712 125.493 30.6191 124.645C27.5263 123.797 24.6985 122.631 22.1359 121.147C19.5733 119.663 16.8339 117.49 13.9178 114.628C11.09 111.766 8.70414 108.374 6.76007 104.453C2.25336 95.3367 0 83.571 0 69.1554C0 59.5096 1.23714 50.9768 3.71142 43.557C6.27406 36.1372 9.32271 30.4133 12.8574 26.3854C16.4804 22.3575 20.5895 19.1246 25.1846 16.6866C32.6074 12.6587 40.0744 10.6448 47.5856 10.6448C58.3663 10.6448 66.0984 11.7047 70.7819 13.8247C72.9027 14.7787 74.8026 16.2626 76.4815 18.2766C78.1605 20.2905 79 23.2055 79 27.0214C79 30.8373 78.2047 35.6602 76.6141 41.49C75.1119 47.3199 72.9027 50.2348 69.9866 50.2348C69.1029 50.2348 67.0197 47.729 60.3692 40.3443C55.734 36.3308 54.5248 34.886 43.2391 32.799C31.9534 31.5147 31.9534 31.5147 22.1359 36.973C14.2762 43.3945 11.6888 52.2937 11.6888 59.9255C11.6888 67.5573 11.3973 74.6993 14.6218 84.171C19.2126 97.6562 18.1309 103.308 38.8055 101.83C54.5248 100.706 54.0364 92.1038 59.7802 89.9839C65.6124 87.7579 69.0707 88.8266 70.0427 88.8266C73.2672 90.7531 73.0657 89.9839 76.349 95.7077C77.9396 101.75 78.7349 106.625 78.7349 110.335C78.7349 114.045 77.7628 117.013 75.8188 119.239C73.9631 121.359 71.2679 122.949 67.7332 124.009Z" fill="black"/>
</svg>
