<svg width="1314" height="747" viewBox="0 0 1314 747" fill="none" xmlns="http://www.w3.org/2000/svg">
<path d="M838.142 646.026C845.898 653.736 849 662 843 670C837.5 675 831.517 675.5 817.5 675.5C803.483 675.5 789.393 667.766 779.922 664.355C770.641 660.681 766 656.089 766 650.578C766 644.28 774.429 604.13 791.287 530.129C808.145 455.866 817.805 413.093 820.267 401.809C821.214 398.397 828.791 395.642 842.997 393.543C857.393 391.181 872.735 390 889.025 390C905.504 390 914.596 393.936 916.301 401.809C952.1 566.605 970 650.315 970 652.94C970 655.564 968.863 658.188 966.59 660.812C961.287 666.585 950.774 669.472 935.053 669.472C901.526 669.472 854.5 662 876 647.5L884 643.5L895.5 639L909.5 635L935.053 627.354H815.153L838.142 646.026ZM908.38 591.775L875.631 466.75H862.273L832.109 591.775H908.38Z" fill="black"/>
<path d="M843 670L833 663M835 674L825 667M845.5 665L836 658.5" stroke="white"/>
<path d="M874 659.5L884 659.5M874 649L886 649M870.5 654.5L881 654.5" stroke="white"/>
<path d="M78.4822 729.6C78.4822 734.8 72.7625 739 61.323 742.2C50.0711 745.4 38.6317 747 27.0047 747C15.5652 747 8.15767 745.6 4.78209 742.8C1.59405 740 0 735.6 0 729.6V360.6C0 350.6 5.43846 341.6 16.3153 333.6C27.1922 325.2 39.0067 321 51.7589 321C69.5744 321 78.4822 330 78.4822 348L51.7589 534.958H130.522L103.518 360.6C103.518 350.6 108.956 341.6 119.833 333.6C130.897 325.2 142.806 321 155.558 321C173.186 321 182 330 182 348V729.6C182 734.8 176.28 739 164.841 742.2C153.401 745.4 141.962 747 130.522 747C119.083 747 111.675 745.6 108.3 742.8C105.112 740 103.518 735.6 103.518 729.6L119.833 569.799H61.323L78.4822 729.6Z" fill="black"/>
<ellipse cx="274.5" cy="46" rx="27.5" ry="31" fill="black"/>
<ellipse cx="27.5" cy="31" rx="27.5" ry="31" transform="matrix(-1 0 0 1 413 0)" fill="black"/>
<circle cx="277" cy="47" r="19" fill="white"/>
<circle cx="19" cy="19" r="19" transform="matrix(-1 0 0 1 405 12)" fill="white"/>
<path d="M399.047 314.547C390.277 316.967 381.289 318.58 372.081 319.387C363.092 320.462 354.213 321 345.443 321C336.893 321 330.206 320.731 325.383 320.193C320.779 319.656 314.64 318.311 306.966 316.16C299.293 314.01 292.277 311.052 285.919 307.288C279.562 303.524 272.765 298.012 265.53 290.753C258.515 283.494 252.595 274.89 247.772 264.942C236.591 241.82 231 211.977 231 175.412C231 150.945 234.069 129.302 240.208 110.481C246.566 91.6612 254.13 77.1427 262.899 66.9259C271.888 56.7092 282.083 48.5089 293.483 42.3251C311.899 32.1084 330.425 27 349.06 27C375.808 27 394.991 29.6886 406.611 35.0658C411.872 37.4856 416.586 41.2496 420.752 46.358C424.917 51.4664 427 58.8601 427 68.5391C427 78.2181 425.027 90.4513 421.081 105.239C417.353 120.026 411.872 127.42 404.638 127.42C402.445 127.42 397.277 121.064 380.777 102.332C369.277 92.1524 366.277 88.4875 338.277 83.1939C310.277 79.9363 310.277 79.9363 285.919 93.7812C266.419 110.069 260 132.642 260 152C260 171.358 259.277 189.474 267.277 213.499C278.667 247.704 275.983 262.04 327.277 258.291C366.277 255.44 365.065 233.62 379.315 228.243C393.785 222.597 402.365 225.307 404.777 225.307C412.777 230.194 412.277 228.243 420.423 242.761C424.369 258.086 426.342 270.454 426.342 279.864C426.342 289.274 423.931 296.802 419.107 302.449C414.503 307.826 407.817 311.859 399.047 314.547Z" fill="black"/>
<path d="M425.165 171.552V208.928C425.165 209.867 422.733 210.635 417.869 211.232C413.09 211.744 408.098 212 402.893 212C397.773 212 394.445 211.787 392.909 211.36C391.373 210.848 390.605 210.037 390.605 208.928V145.824C390.605 144.203 392.952 142.453 397.645 140.576C402.424 138.699 407.586 137.76 413.133 137.76C418.765 137.76 421.922 139.296 422.605 142.368L423.885 148.256H424.781C425.976 145.013 428.834 142.283 433.357 140.064C437.88 137.76 442.402 136.608 446.925 136.608C451.448 136.608 454.605 137.333 456.397 138.784C458.274 140.235 459.213 142.112 459.213 144.416C459.213 146.635 459.042 149.493 458.701 152.992C458.36 156.491 457.506 160.288 456.141 164.384C454.861 168.48 453.154 170.528 451.021 170.528C450.168 170.528 447.48 169.888 442.957 168.608C438.434 167.328 434.68 166.688 431.693 166.688C428.792 166.688 426.957 167.115 426.189 167.968C425.506 168.821 425.165 170.016 425.165 171.552ZM500.805 145.824V208.928C500.805 209.867 498.33 210.635 493.381 211.232C488.517 211.744 483.482 212 478.277 212C473.157 212 469.829 211.787 468.293 211.36C466.842 210.848 466.117 210.037 466.117 208.928V148.128C466.117 146.251 468.506 144.416 473.285 142.624C478.149 140.747 483.44 139.808 489.157 139.808C496.922 139.808 500.805 141.813 500.805 145.824ZM483.397 112.16C489.029 112.16 493.424 113.013 496.581 114.72C499.824 116.341 501.445 119.328 501.445 123.68C501.445 131.36 495.472 135.2 483.525 135.2C471.578 135.2 465.605 131.36 465.605 123.68C465.605 116 471.536 112.16 483.397 112.16ZM626.963 169.76V208.928C626.963 209.867 624.531 210.635 619.667 211.232C614.888 211.744 609.896 212 604.691 212C599.571 212 596.243 211.787 594.707 211.36C593.171 210.848 592.403 210.037 592.403 208.928V173.472C592.403 161.269 591.166 155.168 588.691 155.168C588.094 155.168 587.496 155.424 586.899 155.936C586.302 156.448 586.003 157.344 586.003 158.624V208.928C586.003 209.867 583.571 210.635 578.707 211.232C573.928 211.744 568.936 212 563.731 212C558.526 212 555.155 211.787 553.619 211.36C552.168 210.848 551.443 210.037 551.443 208.928V173.472C551.443 164 550.846 158.325 549.651 156.448C549.054 155.595 548.286 155.168 547.347 155.168C545.726 155.168 544.915 156.32 544.915 158.624V208.928C544.915 209.867 542.483 210.635 537.619 211.232C532.755 211.744 527.72 212 522.515 212C517.395 212 514.067 211.787 512.531 211.36C511.08 210.848 510.355 210.037 510.355 208.928V145.824C510.355 144.032 512.787 142.24 517.651 140.448C522.6 138.656 527.806 137.76 533.267 137.76C538.728 137.76 541.8 139.339 542.483 142.496L543.635 148.128H544.531C547.006 143.264 551.102 139.808 556.819 137.76C559.208 136.992 562.28 136.608 566.035 136.608C573.544 136.608 579.006 140.448 582.419 148.128C583.528 145.568 586.302 143.008 590.739 140.448C595.176 137.888 600.083 136.608 605.459 136.608C613.907 136.608 619.582 139.253 622.483 144.544C625.47 149.749 626.963 158.155 626.963 169.76ZM671.18 145.824V208.928C671.18 209.867 668.705 210.635 663.756 211.232C658.892 211.744 653.857 212 648.652 212C643.532 212 640.204 211.787 638.668 211.36C637.217 210.848 636.492 210.037 636.492 208.928V148.128C636.492 146.251 638.881 144.416 643.66 142.624C648.524 140.747 653.815 139.808 659.532 139.808C667.297 139.808 671.18 141.813 671.18 145.824ZM653.772 112.16C659.404 112.16 663.799 113.013 666.956 114.72C670.199 116.341 671.82 119.328 671.82 123.68C671.82 131.36 665.847 135.2 653.9 135.2C641.953 135.2 635.98 131.36 635.98 123.68C635.98 116 641.911 112.16 653.772 112.16ZM757.914 169.504V208.928C757.914 209.867 755.482 210.635 750.618 211.232C745.754 211.744 740.719 212 735.514 212C730.394 212 727.066 211.787 725.53 211.36C724.079 210.848 723.354 210.037 723.354 208.928V168.224C723.354 164.384 723.183 161.867 722.842 160.672C722.586 159.477 722.33 158.411 722.074 157.472C721.477 155.851 720.41 155.04 718.874 155.04C716.485 155.04 715.29 156.192 715.29 158.496V208.928C715.29 209.867 712.858 210.635 707.994 211.232C703.215 211.744 698.223 212 693.018 212C687.898 212 684.57 211.787 683.034 211.36C681.498 210.848 680.73 210.037 680.73 208.928V145.824C680.73 144.032 683.162 142.24 688.026 140.448C692.975 138.656 698.181 137.76 703.642 137.76C709.103 137.76 712.175 139.339 712.858 142.496L714.01 148.128H714.906C717.381 143.179 721.647 139.723 727.706 137.76C730.181 136.992 732.911 136.608 735.898 136.608C744.517 136.608 750.319 139.211 753.306 144.416C756.378 149.536 757.914 157.899 757.914 169.504ZM791.175 213.152C783.41 213.152 777.308 211.317 772.871 207.648C771.079 206.112 769.5 203.851 768.135 200.864C766.855 197.877 766.215 194.379 766.215 190.368C766.215 186.357 767.154 182.859 769.031 179.872C770.994 176.885 773.34 174.581 776.071 172.96C778.802 171.339 782.002 170.016 785.671 168.992C791.218 167.541 797.319 166.816 803.975 166.816H808.199C808.199 163.317 807.004 160.843 804.615 159.392C803.591 158.795 802.012 158.496 799.879 158.496C797.831 158.496 795.314 159.051 792.327 160.16C789.426 161.269 786.994 162.421 785.031 163.616C783.068 164.725 781.746 165.28 781.063 165.28C779.527 165.28 777.436 163.275 774.791 159.264C772.146 155.168 770.823 151.456 770.823 148.128C770.823 147.019 772.402 145.568 775.559 143.776C778.716 141.984 783.154 140.363 788.871 138.912C794.674 137.376 800.306 136.608 805.767 136.608C811.228 136.608 815.922 137.077 819.847 138.016C823.858 138.869 827.1 139.936 829.575 141.216C832.135 142.496 834.268 144.203 835.975 146.336C837.767 148.469 839.09 150.389 839.943 152.096C840.882 153.803 841.564 156.021 841.991 158.752C842.588 161.909 842.887 165.792 842.887 170.4V208.928C842.887 209.867 840.583 210.635 835.975 211.232C831.452 211.744 826.93 212 822.407 212C817.97 212 815.068 211.872 813.703 211.616C812.423 211.36 811.655 211.061 811.399 210.72C811.143 210.379 810.93 209.781 810.759 208.928L809.735 201.632H808.711C806.578 209.312 800.732 213.152 791.175 213.152ZM808.327 191.904V176.928C806.108 176.928 804.316 177.867 802.951 179.744C801.586 181.621 800.903 183.755 800.903 186.144C800.903 191.776 802.183 194.592 804.743 194.592C805.852 194.592 806.706 194.336 807.303 193.824C807.986 193.227 808.327 192.587 808.327 191.904ZM886.415 118.048V208.928C886.415 209.867 883.983 210.635 879.119 211.232C874.255 211.744 869.22 212 864.015 212C858.895 212 855.567 211.787 854.031 211.36C852.58 210.848 851.855 210.037 851.855 208.928V120.352C851.855 118.475 854.244 116.64 859.023 114.848C863.887 113.056 869.092 112.16 874.639 112.16C882.49 112.16 886.415 114.123 886.415 118.048Z" fill="black"/>
<path d="M223.05 585.152C215.285 585.152 209.183 583.317 204.746 579.648C202.954 578.112 201.375 575.851 200.01 572.864C198.73 569.877 198.09 566.379 198.09 562.368C198.09 558.357 199.029 554.859 200.906 551.872C202.869 548.885 205.215 546.581 207.946 544.96C210.677 543.339 213.877 542.016 217.546 540.992C223.093 539.541 229.194 538.816 235.85 538.816H240.074C240.074 535.317 238.879 532.843 236.49 531.392C235.466 530.795 233.887 530.496 231.754 530.496C229.706 530.496 227.189 531.051 224.202 532.16C221.301 533.269 218.869 534.421 216.906 535.616C214.943 536.725 213.621 537.28 212.938 537.28C211.402 537.28 209.311 535.275 206.666 531.264C204.021 527.168 202.698 523.456 202.698 520.128C202.698 519.019 204.277 517.568 207.434 515.776C210.591 513.984 215.029 512.363 220.746 510.912C226.549 509.376 232.181 508.608 237.642 508.608C243.103 508.608 247.797 509.077 251.722 510.016C255.733 510.869 258.975 511.936 261.45 513.216C264.01 514.496 266.143 516.203 267.85 518.336C269.642 520.469 270.965 522.389 271.818 524.096C272.757 525.803 273.439 528.021 273.866 530.752C274.463 533.909 274.762 537.792 274.762 542.4V580.928C274.762 581.867 272.458 582.635 267.85 583.232C263.327 583.744 258.805 584 254.282 584C249.845 584 246.943 583.872 245.578 583.616C244.298 583.36 243.53 583.061 243.274 582.72C243.018 582.379 242.805 581.781 242.634 580.928L241.61 573.632H240.586C238.453 581.312 232.607 585.152 223.05 585.152ZM240.202 563.904V548.928C237.983 548.928 236.191 549.867 234.826 551.744C233.461 553.621 232.778 555.755 232.778 558.144C232.778 563.776 234.058 566.592 236.618 566.592C237.727 566.592 238.581 566.336 239.178 565.824C239.861 565.227 240.202 564.587 240.202 563.904ZM400.338 541.76V580.928C400.338 581.867 397.906 582.635 393.042 583.232C388.263 583.744 383.271 584 378.066 584C372.946 584 369.618 583.787 368.082 583.36C366.546 582.848 365.778 582.037 365.778 580.928V545.472C365.778 533.269 364.541 527.168 362.066 527.168C361.469 527.168 360.871 527.424 360.274 527.936C359.677 528.448 359.378 529.344 359.378 530.624V580.928C359.378 581.867 356.946 582.635 352.082 583.232C347.303 583.744 342.311 584 337.106 584C331.901 584 328.53 583.787 326.994 583.36C325.543 582.848 324.818 582.037 324.818 580.928V545.472C324.818 536 324.221 530.325 323.026 528.448C322.429 527.595 321.661 527.168 320.722 527.168C319.101 527.168 318.29 528.32 318.29 530.624V580.928C318.29 581.867 315.858 582.635 310.994 583.232C306.13 583.744 301.095 584 295.89 584C290.77 584 287.442 583.787 285.906 583.36C284.455 582.848 283.73 582.037 283.73 580.928V517.824C283.73 516.032 286.162 514.24 291.026 512.448C295.975 510.656 301.181 509.76 306.642 509.76C312.103 509.76 315.175 511.339 315.858 514.496L317.01 520.128H317.906C320.381 515.264 324.477 511.808 330.194 509.76C332.583 508.992 335.655 508.608 339.41 508.608C346.919 508.608 352.381 512.448 355.794 520.128C356.903 517.568 359.677 515.008 364.114 512.448C368.551 509.888 373.458 508.608 378.834 508.608C387.282 508.608 392.957 511.253 395.858 516.544C398.845 521.749 400.338 530.155 400.338 541.76ZM444.171 585.152C430.006 585.152 419.638 583.787 413.067 581.056C409.739 579.605 408.075 578.197 408.075 576.832C408.075 573.333 409.099 569.237 411.147 564.544C413.195 559.851 414.987 557.504 416.523 557.504C417.376 557.504 420.235 558.443 425.099 560.32C430.048 562.197 434.187 563.136 437.515 563.136C440.928 563.136 443.147 562.923 444.171 562.496C445.28 562.069 445.835 561.259 445.835 560.064C445.835 558.784 444.982 557.803 443.275 557.12C441.568 556.352 439.435 555.84 436.875 555.584C434.315 555.328 431.542 554.816 428.555 554.048C425.654 553.28 422.923 552.299 420.363 551.104C417.803 549.909 415.67 547.947 413.963 545.216C412.256 542.4 411.403 539.413 411.403 536.256C411.403 533.013 411.488 530.624 411.659 529.088C411.83 527.467 412.512 525.248 413.707 522.432C414.987 519.531 416.736 517.184 418.955 515.392C421.259 513.6 424.758 511.979 429.451 510.528C434.23 509.077 439.563 508.352 445.451 508.352C451.339 508.352 456.246 508.565 460.171 508.992C464.182 509.333 467.296 509.803 469.515 510.4C471.819 510.997 473.696 511.68 475.147 512.448C477.622 513.728 478.859 515.136 478.859 516.672C478.859 520 477.664 523.84 475.275 528.192C472.886 532.544 470.966 534.72 469.515 534.72C468.15 534.72 465.12 533.995 460.427 532.544C455.734 531.008 452.278 530.24 450.059 530.24C446.475 530.24 444.683 531.264 444.683 533.312C444.683 534.592 445.878 535.573 448.267 536.256C450.742 536.853 453.686 537.493 457.099 538.176C460.512 538.859 463.926 539.84 467.339 541.12C470.838 542.315 473.782 544.533 476.171 547.776C478.646 551.019 479.883 555.115 479.883 560.064C479.883 576.789 467.979 585.152 444.171 585.152ZM537.909 582.848C536.373 584.299 532.874 585.024 527.413 585.024C521.952 585.024 517.429 584.683 513.845 584C510.261 583.232 506.848 581.781 503.605 579.648C497.376 575.467 494.261 566.763 494.261 553.536V533.568H487.861C486.922 533.568 486.112 532.587 485.429 530.624C484.746 528.661 484.405 525.973 484.405 522.56C484.405 519.147 484.917 516.16 485.941 513.6C487.05 510.955 488.458 509.632 490.165 509.632H494.261V494.144C494.261 491.499 496.821 489.365 501.941 487.744C507.146 486.123 512.224 485.312 517.173 485.312C524.938 485.312 528.821 487.232 528.821 491.072V509.632H538.293C540.512 509.632 541.621 512.832 541.621 519.232C541.621 523.413 541.109 526.869 540.085 529.6C539.146 532.245 537.909 533.568 536.373 533.568H528.821V556.992C528.821 559.296 529.802 560.96 531.765 561.984C533.728 562.923 535.434 563.392 536.885 563.392C538.421 563.392 539.36 564.117 539.701 565.568C540.042 567.019 540.213 569.195 540.213 572.096C540.213 577.813 539.445 581.397 537.909 582.848ZM583.019 555.072C583.019 560.619 585.664 563.392 590.955 563.392C594.027 563.392 598.038 562.368 602.987 560.32C607.936 558.187 610.539 557.12 610.795 557.12C612.416 557.12 614.55 559.552 617.195 564.416C619.84 569.28 621.163 572.864 621.163 575.168C621.163 578.496 617.75 581.013 610.923 582.72C604.096 584.427 597.398 585.28 590.827 585.28C584.342 585.28 578.88 584.768 574.443 583.744C570.091 582.72 566.507 581.44 563.691 579.904C560.96 578.283 558.528 576.32 556.395 574.016C554.347 571.712 552.811 569.536 551.787 567.488C550.763 565.355 549.952 563.008 549.355 560.448C548.502 556.693 548.075 552.811 548.075 548.8C548.075 533.269 552.128 522.56 560.235 516.672C564.246 513.685 568.726 511.595 573.675 510.4C578.624 509.205 584.47 508.608 591.211 508.608C612.8 508.608 623.595 516.117 623.595 531.136C623.595 547.093 611.478 555.072 587.243 555.072H583.019ZM582.763 536.384V544.832C585.238 544.832 587.243 543.851 588.779 541.888C590.4 539.925 591.211 537.536 591.211 534.72C591.211 529.6 589.888 527.04 587.243 527.04C584.256 527.04 582.763 530.155 582.763 536.384ZM665.79 543.552V580.928C665.79 581.867 663.358 582.635 658.494 583.232C653.715 583.744 648.723 584 643.518 584C638.398 584 635.07 583.787 633.534 583.36C631.998 582.848 631.23 582.037 631.23 580.928V517.824C631.23 516.203 633.577 514.453 638.27 512.576C643.049 510.699 648.211 509.76 653.758 509.76C659.39 509.76 662.547 511.296 663.23 514.368L664.51 520.256H665.406C666.601 517.013 669.459 514.283 673.982 512.064C678.505 509.76 683.027 508.608 687.55 508.608C692.073 508.608 695.23 509.333 697.022 510.784C698.899 512.235 699.838 514.112 699.838 516.416C699.838 518.635 699.667 521.493 699.326 524.992C698.985 528.491 698.131 532.288 696.766 536.384C695.486 540.48 693.779 542.528 691.646 542.528C690.793 542.528 688.105 541.888 683.582 540.608C679.059 539.328 675.305 538.688 672.318 538.688C669.417 538.688 667.582 539.115 666.814 539.968C666.131 540.821 665.79 542.016 665.79 543.552Z" fill="black"/>
<path d="M1008.16 582.848C1006.62 584.299 1003.12 585.024 997.663 585.024C992.202 585.024 987.679 584.683 984.095 584C980.511 583.232 977.098 581.781 973.855 579.648C967.626 575.467 964.511 566.763 964.511 553.536V533.568H958.111C957.172 533.568 956.362 532.587 955.679 530.624C954.996 528.661 954.655 525.973 954.655 522.56C954.655 519.147 955.167 516.16 956.191 513.6C957.3 510.955 958.708 509.632 960.415 509.632H964.511V494.144C964.511 491.499 967.071 489.365 972.191 487.744C977.396 486.123 982.474 485.312 987.423 485.312C995.188 485.312 999.071 487.232 999.071 491.072V509.632H1008.54C1010.76 509.632 1011.87 512.832 1011.87 519.232C1011.87 523.413 1011.36 526.869 1010.34 529.6C1009.4 532.245 1008.16 533.568 1006.62 533.568H999.071V556.992C999.071 559.296 1000.05 560.96 1002.02 561.984C1003.98 562.923 1005.68 563.392 1007.14 563.392C1008.67 563.392 1009.61 564.117 1009.95 565.568C1010.29 567.019 1010.46 569.195 1010.46 572.096C1010.46 577.813 1009.7 581.397 1008.16 582.848ZM1069.91 582.848C1068.37 584.299 1064.87 585.024 1059.41 585.024C1053.95 585.024 1049.43 584.683 1045.85 584C1042.26 583.232 1038.85 581.781 1035.61 579.648C1029.38 575.467 1026.26 566.763 1026.26 553.536V533.568H1019.86C1018.92 533.568 1018.11 532.587 1017.43 530.624C1016.75 528.661 1016.41 525.973 1016.41 522.56C1016.41 519.147 1016.92 516.16 1017.94 513.6C1019.05 510.955 1020.46 509.632 1022.17 509.632H1026.26V494.144C1026.26 491.499 1028.82 489.365 1033.94 487.744C1039.15 486.123 1044.22 485.312 1049.17 485.312C1056.94 485.312 1060.82 487.232 1060.82 491.072V509.632H1070.29C1072.51 509.632 1073.62 512.832 1073.62 519.232C1073.62 523.413 1073.11 526.869 1072.09 529.6C1071.15 532.245 1069.91 533.568 1068.37 533.568H1060.82V556.992C1060.82 559.296 1061.8 560.96 1063.77 561.984C1065.73 562.923 1067.43 563.392 1068.89 563.392C1070.42 563.392 1071.36 564.117 1071.7 565.568C1072.04 567.019 1072.21 569.195 1072.21 572.096C1072.21 577.813 1071.45 581.397 1069.91 582.848ZM1105.68 585.152C1097.91 585.152 1091.81 583.317 1087.37 579.648C1085.58 578.112 1084 575.851 1082.64 572.864C1081.36 569.877 1080.72 566.379 1080.72 562.368C1080.72 558.357 1081.65 554.859 1083.53 551.872C1085.49 548.885 1087.84 546.581 1090.57 544.96C1093.3 543.339 1096.5 542.016 1100.17 540.992C1105.72 539.541 1111.82 538.816 1118.48 538.816H1122.7C1122.7 535.317 1121.5 532.843 1119.12 531.392C1118.09 530.795 1116.51 530.496 1114.38 530.496C1112.33 530.496 1109.81 531.051 1106.83 532.16C1103.93 533.269 1101.49 534.421 1099.53 535.616C1097.57 536.725 1096.25 537.28 1095.56 537.28C1094.03 537.28 1091.94 535.275 1089.29 531.264C1086.65 527.168 1085.32 523.456 1085.32 520.128C1085.32 519.019 1086.9 517.568 1090.06 515.776C1093.22 513.984 1097.65 512.363 1103.37 510.912C1109.17 509.376 1114.81 508.608 1120.27 508.608C1125.73 508.608 1130.42 509.077 1134.35 510.016C1138.36 510.869 1141.6 511.936 1144.08 513.216C1146.64 514.496 1148.77 516.203 1150.48 518.336C1152.27 520.469 1153.59 522.389 1154.44 524.096C1155.38 525.803 1156.06 528.021 1156.49 530.752C1157.09 533.909 1157.39 537.792 1157.39 542.4V580.928C1157.39 581.867 1155.08 582.635 1150.48 583.232C1145.95 583.744 1141.43 584 1136.91 584C1132.47 584 1129.57 583.872 1128.2 583.616C1126.92 583.36 1126.16 583.061 1125.9 582.72C1125.64 582.379 1125.43 581.781 1125.26 580.928L1124.24 573.632H1123.21C1121.08 581.312 1115.23 585.152 1105.68 585.152ZM1122.83 563.904V548.928C1120.61 548.928 1118.82 549.867 1117.45 551.744C1116.09 553.621 1115.4 555.755 1115.4 558.144C1115.4 563.776 1116.68 566.592 1119.24 566.592C1120.35 566.592 1121.21 566.336 1121.8 565.824C1122.49 565.227 1122.83 564.587 1122.83 563.904ZM1182.87 581.824C1180.82 580.885 1178.6 579.477 1176.21 577.6C1173.91 575.723 1171.99 573.504 1170.45 570.944C1166.87 564.8 1165.08 556.779 1165.08 546.88C1165.08 540.736 1166.06 535.275 1168.02 530.496C1169.98 525.632 1172.37 521.877 1175.19 519.232C1178 516.587 1181.25 514.411 1184.92 512.704C1190.8 509.973 1196.69 508.608 1202.58 508.608C1212.48 508.608 1219.35 509.376 1223.19 510.912C1227.11 512.448 1229.08 515.051 1229.08 518.72C1229.08 522.389 1228.39 526.315 1227.03 530.496C1225.75 534.592 1224.04 536.64 1221.91 536.64C1221.22 536.64 1219.13 535.915 1215.64 534.464C1212.22 533.013 1209.24 532.288 1206.68 532.288C1204.2 532.288 1202.28 533.312 1200.92 535.36C1199.64 537.323 1199 541.205 1199 547.008C1199 552.725 1199.59 556.651 1200.79 558.784C1201.98 560.832 1203.82 561.856 1206.29 561.856C1208.85 561.856 1212.01 561.003 1215.76 559.296C1219.52 557.589 1221.61 556.736 1222.04 556.736C1223.66 556.736 1225.19 558.656 1226.64 562.496C1228.18 566.336 1228.95 569.749 1228.95 572.736C1228.95 577.344 1226.56 580.587 1221.78 582.464C1217 584.256 1210.52 585.152 1202.32 585.152C1194.22 585.152 1187.73 584.043 1182.87 581.824ZM1271.29 580.928C1271.29 581.867 1268.9 582.635 1264.12 583.232C1259.34 583.744 1254.35 584 1249.15 584C1243.94 584 1240.57 583.787 1239.03 583.36C1237.5 582.848 1236.73 582.037 1236.73 580.928V492.352C1236.73 490.475 1239.12 488.64 1243.9 486.848C1248.76 485.056 1253.97 484.16 1259.51 484.16C1267.36 484.16 1271.29 486.123 1271.29 490.048V537.92H1272.95C1277.05 518.379 1280.08 508.608 1282.04 508.608C1286.99 508.608 1292.96 509.76 1299.96 512.064C1306.96 514.368 1310.46 516.928 1310.46 519.744C1310.46 521.792 1308.75 525.717 1305.34 531.52C1301.92 537.323 1298.38 542.059 1294.71 545.728C1306.92 560.32 1313.02 568.981 1313.02 571.712C1313.02 574.272 1309.14 577.387 1301.37 581.056C1293.6 584.725 1288.14 586.56 1284.99 586.56C1283.45 586.56 1281.83 584.725 1280.12 581.056C1278.42 577.301 1276.58 571.712 1274.62 564.288L1271.29 568.256V580.928Z" fill="black"/>
</svg>
